<svg width="119" height="37" viewBox="0 0 119 37" fill="none" xmlns="http://www.w3.org/2000/svg">
<path d="M14.4436 15.2325C14.3391 15.424 14.178 15.5198 13.9604 15.5198C13.8298 15.5198 13.6818 15.4719 13.5164 15.3761C13.3509 15.2803 13.1464 15.1759 12.9026 15.0627C12.6675 14.9408 12.3846 14.832 12.0537 14.7362C11.7229 14.6317 11.3311 14.5795 10.8784 14.5795C10.4866 14.5795 10.134 14.6317 9.82058 14.7362C9.50715 14.832 9.23726 14.9669 9.0109 15.141C8.79325 15.3152 8.62347 15.5198 8.50159 15.7548C8.38841 15.9812 8.33182 16.2293 8.33182 16.4992C8.33182 16.8388 8.42758 17.1217 8.61912 17.3481C8.81936 17.5744 9.08055 17.7703 9.40268 17.9357C9.72481 18.1012 10.0905 18.2492 10.4997 18.3798C10.9089 18.5016 11.3268 18.6366 11.7534 18.7846C12.1887 18.9239 12.6109 19.0806 13.0201 19.2547C13.4293 19.4289 13.795 19.6465 14.1171 19.9077C14.4392 20.1689 14.6961 20.491 14.8876 20.8741C15.0878 21.2485 15.188 21.7012 15.188 22.2323C15.188 22.8417 15.0791 23.4076 14.8615 23.93C14.6438 24.4436 14.3217 24.892 13.8951 25.2751C13.4685 25.6494 12.9461 25.9455 12.328 26.1631C11.7098 26.3808 10.9959 26.4896 10.1862 26.4896C9.26338 26.4896 8.42758 26.3416 7.67885 26.0456C6.93012 25.7409 6.29456 25.3534 5.77219 24.8833L6.32068 23.9953C6.39033 23.8821 6.47304 23.795 6.56881 23.7341C6.66458 23.6731 6.78646 23.6427 6.93447 23.6427C7.09118 23.6427 7.2566 23.7036 7.43072 23.8255C7.60485 23.9474 7.8138 24.0823 8.05757 24.2303C8.31005 24.3783 8.61477 24.5133 8.97172 24.6352C9.32868 24.7571 9.77269 24.818 10.3038 24.818C10.7565 24.818 11.1526 24.7614 11.4922 24.6482C11.8317 24.5263 12.1147 24.3653 12.341 24.165C12.5674 23.9648 12.7328 23.7341 12.8373 23.4729C12.9505 23.2117 13.0071 22.9331 13.0071 22.6371C13.0071 22.2714 12.9069 21.9711 12.7067 21.736C12.5152 21.4922 12.2583 21.2876 11.9362 21.1222C11.6141 20.9481 11.244 20.8001 10.8261 20.6782C10.417 20.5476 9.9947 20.4127 9.55939 20.2734C9.13279 20.1341 8.71054 19.9773 8.29264 19.8032C7.88345 19.6204 7.51779 19.394 7.19566 19.1241C6.87353 18.8542 6.61234 18.5234 6.4121 18.1316C6.22056 17.7311 6.12479 17.2479 6.12479 16.682C6.12479 16.1771 6.22927 15.6939 6.43822 15.2325C6.64716 14.7623 6.95188 14.3531 7.35237 14.0049C7.75285 13.6479 8.24475 13.365 8.82807 13.156C9.41139 12.9471 10.0774 12.8426 10.8261 12.8426C11.6968 12.8426 12.476 12.9819 13.1638 13.2605C13.8603 13.5304 14.461 13.9048 14.9659 14.3836L14.4436 15.2325ZM25.2075 20.3256C24.1366 20.3604 23.2225 20.4475 22.4651 20.5868C21.7163 20.7174 21.1025 20.8915 20.6237 21.1092C20.1536 21.3268 19.8097 21.5836 19.592 21.8797C19.3831 22.1757 19.2786 22.5065 19.2786 22.8722C19.2786 23.2204 19.3352 23.5208 19.4484 23.7733C19.5615 24.0257 19.7139 24.2347 19.9054 24.4001C20.1057 24.5568 20.3364 24.6743 20.5976 24.7527C20.8675 24.8223 21.1548 24.8572 21.4595 24.8572C21.8687 24.8572 22.243 24.818 22.5826 24.7396C22.9221 24.6526 23.2399 24.5307 23.5359 24.374C23.8406 24.2173 24.1279 24.0301 24.3978 23.8124C24.6764 23.5948 24.9463 23.3466 25.2075 23.068V20.3256ZM17.6984 14.919C18.4297 14.2138 19.2176 13.6871 20.0621 13.3389C20.9066 12.9906 21.8426 12.8165 22.8699 12.8165C23.6099 12.8165 24.2672 12.9384 24.8419 13.1821C25.4165 13.4259 25.8997 13.7655 26.2914 14.2008C26.6832 14.6361 26.9792 15.1628 27.1795 15.781C27.3797 16.3991 27.4798 17.0782 27.4798 17.8182V26.2806H26.4481C26.2218 26.2806 26.0477 26.2458 25.9258 26.1762C25.8039 26.0978 25.7081 25.9498 25.6385 25.7321L25.3773 24.4785C25.029 24.8006 24.6895 25.0879 24.3587 25.3404C24.0278 25.5841 23.6796 25.7931 23.3139 25.9672C22.9482 26.1326 22.5565 26.2589 22.1386 26.3459C21.7294 26.4417 21.2723 26.4896 20.7673 26.4896C20.2537 26.4896 19.7705 26.4199 19.3178 26.2806C18.865 26.1326 18.4689 25.915 18.1294 25.6277C17.7985 25.3404 17.533 24.9791 17.3327 24.5438C17.1412 24.0997 17.0454 23.5774 17.0454 22.9766C17.0454 22.4543 17.1891 21.9537 17.4764 21.4748C17.7637 20.9873 18.2295 20.5563 18.8737 20.1819C19.518 19.8076 20.3582 19.5029 21.3942 19.2678C22.4302 19.024 23.7013 18.8847 25.2075 18.8499V17.8182C25.2075 16.7909 24.9855 16.016 24.5415 15.4936C24.0975 14.9626 23.4489 14.697 22.5956 14.697C22.021 14.697 21.5378 14.771 21.1461 14.919C20.763 15.0583 20.4278 15.2194 20.1405 15.4022C19.8619 15.5764 19.6181 15.7374 19.4092 15.8854C19.2089 16.0247 19.0087 16.0944 18.8084 16.0944C18.6517 16.0944 18.5168 16.0552 18.4036 15.9768C18.2904 15.8898 18.1947 15.7853 18.1163 15.6634L17.6984 14.919ZM33.3584 14.8146C33.9243 14.2138 34.5511 13.735 35.2389 13.378C35.9267 13.0211 36.719 12.8426 37.6157 12.8426C38.3383 12.8426 38.9739 12.9645 39.5224 13.2083C40.0796 13.4433 40.541 13.7829 40.9066 14.2269C41.281 14.6622 41.564 15.1889 41.7555 15.8071C41.947 16.4252 42.0428 17.1086 42.0428 17.8574V26.2806H39.7052V17.8574C39.7052 16.8562 39.4745 16.0813 39.013 15.5328C38.5603 14.9756 37.8682 14.697 36.9366 14.697C36.2488 14.697 35.6046 14.8624 35.0038 15.1933C34.4118 15.5241 33.8633 15.9725 33.3584 16.5384V26.2806H31.0207V7.04427H33.3584V14.8146ZM48.0401 13.0516V26.2806H45.7155V13.0516H48.0401ZM48.5363 8.89869C48.5363 9.12505 48.4885 9.33836 48.3927 9.5386C48.3056 9.73013 48.1837 9.90426 48.027 10.061C47.879 10.209 47.7005 10.3265 47.4916 10.4136C47.2914 10.5006 47.0781 10.5442 46.8517 10.5442C46.6253 10.5442 46.412 10.5006 46.2118 10.4136C46.0202 10.3265 45.8505 10.209 45.7025 10.061C45.5545 9.90426 45.4369 9.73013 45.3499 9.5386C45.2628 9.33836 45.2193 9.12505 45.2193 8.89869C45.2193 8.67233 45.2628 8.45903 45.3499 8.25879C45.4369 8.04984 45.5545 7.87136 45.7025 7.72335C45.8505 7.56664 46.0202 7.44476 46.2118 7.35769C46.412 7.27063 46.6253 7.2271 46.8517 7.2271C47.0781 7.2271 47.2914 7.27063 47.4916 7.35769C47.7005 7.44476 47.879 7.56664 48.027 7.72335C48.1837 7.87136 48.3056 8.04984 48.3927 8.25879C48.4885 8.45903 48.5363 8.67233 48.5363 8.89869ZM54.0535 14.9713C54.3408 14.6491 54.6455 14.3575 54.9676 14.0963C55.2898 13.8351 55.6293 13.6131 55.9863 13.4303C56.3519 13.2387 56.735 13.0951 57.1355 12.9993C57.5447 12.8948 57.9843 12.8426 58.4545 12.8426C59.1771 12.8426 59.8127 12.9645 60.3611 13.2083C60.9183 13.4433 61.3798 13.7829 61.7454 14.2269C62.1198 14.6622 62.4027 15.1889 62.5943 15.8071C62.7858 16.4252 62.8816 17.1086 62.8816 17.8574V26.2806H60.544V17.8574C60.544 16.8562 60.3133 16.0813 59.8518 15.5328C59.3991 14.9756 58.707 14.697 57.7754 14.697C57.0876 14.697 56.4433 14.8624 55.8426 15.1933C55.2506 15.5241 54.7021 15.9725 54.1971 16.5384V26.2806H51.8595V13.0516H53.2569C53.5877 13.0516 53.7923 13.2126 53.8707 13.5347L54.0535 14.9713ZM72.0001 12.8426C72.9664 12.8426 73.8371 13.0037 74.6119 13.3258C75.3868 13.6479 76.0484 14.105 76.5969 14.697C77.1454 15.289 77.5633 16.0073 77.8506 16.8518C78.1466 17.6876 78.2946 18.6235 78.2946 19.6596C78.2946 20.7043 78.1466 21.6446 77.8506 22.4804C77.5633 23.3162 77.1454 24.0301 76.5969 24.6221C76.0484 25.2141 75.3868 25.6712 74.6119 25.9933C73.8371 26.3068 72.9664 26.4635 72.0001 26.4635C71.025 26.4635 70.1456 26.3068 69.3621 25.9933C68.5872 25.6712 67.9255 25.2141 67.3771 24.6221C66.8286 24.0301 66.4063 23.3162 66.1103 22.4804C65.823 21.6446 65.6793 20.7043 65.6793 19.6596C65.6793 18.6235 65.823 17.6876 66.1103 16.8518C66.4063 16.0073 66.8286 15.289 67.3771 14.697C67.9255 14.105 68.5872 13.6479 69.3621 13.3258C70.1456 13.0037 71.025 12.8426 72.0001 12.8426ZM72.0001 24.6482C73.306 24.6482 74.2811 24.2129 74.9253 23.3423C75.5696 22.463 75.8917 21.2397 75.8917 19.6726C75.8917 18.0968 75.5696 16.8692 74.9253 15.9899C74.2811 15.1106 73.306 14.6709 72.0001 14.6709C71.3384 14.6709 70.7594 14.7841 70.2632 15.0105C69.7756 15.2368 69.3664 15.5633 69.0356 15.9899C68.7135 16.4165 68.4697 16.9432 68.3043 17.5701C68.1476 18.1882 68.0692 18.8891 68.0692 19.6726C68.0692 21.2397 68.3913 22.463 69.0356 23.3423C69.6886 24.2129 70.6767 24.6482 72.0001 24.6482ZM85.0749 26.4896C84.0301 26.4896 83.2248 26.1979 82.6589 25.6146C82.1017 25.0313 81.8231 24.1911 81.8231 23.0942V14.9974H80.2299C80.0906 14.9974 79.973 14.9582 79.8773 14.8799C79.7815 14.7928 79.7336 14.6622 79.7336 14.4881V13.5609L81.9015 13.2866L82.4369 9.19906C82.463 9.06846 82.5196 8.96399 82.6067 8.88563C82.7024 8.79857 82.8243 8.75504 82.9723 8.75504H84.1477V13.3127H87.974V14.9974H84.1477V22.9375C84.1477 23.4947 84.2826 23.9082 84.5525 24.1781C84.8224 24.448 85.1706 24.5829 85.5972 24.5829C85.841 24.5829 86.05 24.5525 86.2241 24.4915C86.4069 24.4219 86.5636 24.3479 86.6942 24.2695C86.8248 24.1911 86.9337 24.1215 87.0207 24.0606C87.1165 23.9909 87.1992 23.9561 87.2688 23.9561C87.3907 23.9561 87.4996 24.0301 87.5953 24.1781L88.2744 25.2881C87.8739 25.6625 87.3907 25.9585 86.8248 26.1762C86.2589 26.3851 85.6756 26.4896 85.0749 26.4896ZM99.152 18.223C99.152 17.6833 99.0736 17.1914 98.9169 16.7473C98.7689 16.2946 98.5469 15.9072 98.2509 15.5851C97.9636 15.2542 97.611 15.0017 97.1931 14.8276C96.7752 14.6448 96.3007 14.5534 95.7696 14.5534C94.6552 14.5534 93.7716 14.8799 93.1186 15.5328C92.4743 16.1771 92.0739 17.0738 91.9171 18.223H99.152ZM101.033 24.4262C100.745 24.7745 100.401 25.0792 100.001 25.3404C99.6004 25.5928 99.1694 25.8018 98.708 25.9672C98.2553 26.1326 97.7851 26.2545 97.2976 26.3329C96.81 26.4199 96.3268 26.4635 95.848 26.4635C94.9338 26.4635 94.0893 26.3111 93.3145 26.0064C92.5483 25.693 91.8823 25.2402 91.3164 24.6482C90.7592 24.0475 90.3239 23.3075 90.0105 22.4281C89.6971 21.5488 89.5403 20.5389 89.5403 19.3984C89.5403 18.4755 89.6796 17.6136 89.9582 16.8126C90.2455 16.0117 90.6547 15.3195 91.1858 14.7362C91.7169 14.1442 92.3655 13.6828 93.1317 13.3519C93.8978 13.0124 94.7597 12.8426 95.7174 12.8426C96.5097 12.8426 97.241 12.9776 97.9114 13.2474C98.5904 13.5086 99.1738 13.8917 99.6613 14.3967C100.158 14.8929 100.545 15.5111 100.824 16.2511C101.102 16.9824 101.241 17.8182 101.241 18.7585C101.241 19.1241 101.202 19.3679 101.124 19.4898C101.046 19.6117 100.898 19.6726 100.68 19.6726H91.8388C91.8649 20.5084 91.9781 21.2354 92.1783 21.8535C92.3873 22.4717 92.6746 22.9897 93.0402 23.4076C93.4059 23.8168 93.8412 24.1259 94.3462 24.3348C94.8511 24.535 95.417 24.6352 96.0439 24.6352C96.6272 24.6352 97.1278 24.5699 97.5457 24.4393C97.9723 24.3 98.338 24.152 98.6427 23.9953C98.9474 23.8385 99.1999 23.6949 99.4001 23.5643C99.6091 23.425 99.7876 23.3554 99.9356 23.3554C100.127 23.3554 100.275 23.4294 100.38 23.5774L101.033 24.4262ZM111.802 15.2325C111.697 15.424 111.536 15.5198 111.319 15.5198C111.188 15.5198 111.04 15.4719 110.875 15.3761C110.709 15.2803 110.505 15.1759 110.261 15.0627C110.026 14.9408 109.743 14.832 109.412 14.7362C109.081 14.6317 108.689 14.5795 108.237 14.5795C107.845 14.5795 107.492 14.6317 107.179 14.7362C106.865 14.832 106.595 14.9669 106.369 15.141C106.151 15.3152 105.982 15.5198 105.86 15.7548C105.747 15.9812 105.69 16.2293 105.69 16.4992C105.69 16.8388 105.786 17.1217 105.977 17.3481C106.178 17.5744 106.439 17.7703 106.761 17.9357C107.083 18.1012 107.449 18.2492 107.858 18.3798C108.267 18.5016 108.685 18.6366 109.112 18.7846C109.547 18.9239 109.969 19.0806 110.378 19.2547C110.788 19.4289 111.153 19.6465 111.475 19.9077C111.797 20.1689 112.054 20.491 112.246 20.8741C112.446 21.2485 112.546 21.7012 112.546 22.2323C112.546 22.8417 112.437 23.4076 112.22 23.93C112.002 24.4436 111.68 24.892 111.253 25.2751C110.827 25.6494 110.304 25.9455 109.686 26.1631C109.068 26.3808 108.354 26.4896 107.544 26.4896C106.622 26.4896 105.786 26.3416 105.037 26.0456C104.288 25.7409 103.653 25.3534 103.13 24.8833L103.679 23.9953C103.749 23.8821 103.831 23.795 103.927 23.7341C104.023 23.6731 104.145 23.6427 104.293 23.6427C104.449 23.6427 104.615 23.7036 104.789 23.8255C104.963 23.9474 105.172 24.0823 105.416 24.2303C105.668 24.3783 105.973 24.5133 106.33 24.6352C106.687 24.7571 107.131 24.818 107.662 24.818C108.115 24.818 108.511 24.7614 108.85 24.6482C109.19 24.5263 109.473 24.3653 109.699 24.165C109.926 23.9648 110.091 23.7341 110.195 23.4729C110.309 23.2117 110.365 22.9331 110.365 22.6371C110.365 22.2714 110.265 21.9711 110.065 21.736C109.873 21.4922 109.617 21.2876 109.294 21.1222C108.972 20.9481 108.602 20.8001 108.184 20.6782C107.775 20.5476 107.353 20.4127 106.918 20.2734C106.491 20.1341 106.069 19.9773 105.651 19.8032C105.242 19.6204 104.876 19.394 104.554 19.1241C104.232 18.8542 103.971 18.5234 103.77 18.1316C103.579 17.7311 103.483 17.2479 103.483 16.682C103.483 16.1771 103.587 15.6939 103.796 15.2325C104.005 14.7623 104.31 14.3531 104.711 14.0049C105.111 13.6479 105.603 13.365 106.186 13.156C106.77 12.9471 107.436 12.8426 108.184 12.8426C109.055 12.8426 109.834 12.9819 110.522 13.2605C111.218 13.5304 111.819 13.9048 112.324 14.3836L111.802 15.2325Z" fill="black"/>
<path d="M0 34.8334H118.622" stroke="#098041" stroke-width="2.72069"/>
</svg>
